# xmcd
#
# Track frame offsets: 
#        150
#        13820
#        30908
#        51344
#        72852
#        97947
#        119069
#        137303
#
# Disc length: 2019 seconds
#
# Revision: 0
# Processed by: cddbd v1.5.2PL0 Copyright (c) Steve Scherf et al.
# Submitted via: ExactAudioCopy v0.99pb4
#
DISCID=6307e108
DTITLE=Kristi Dixon - This Is How It Is
DYEAR=2010
DGENRE=Pop
TTITLE0=She Is Your Girlfriend
TTITLE1=This Is How It Is
TTITLE2=The Old Days
TTITLE3=Colors
TTITLE4=Dustin and Shiann
TTITLE5=In Your Face
TTITLE6=In Your Wallet
TTITLE7=You Were Shiny
EXTD=
EXTT0=
EXTT1=
EXTT2=
EXTT3=
EXTT4=
EXTT5=
EXTT6=
EXTT7=
PLAYORDER=
